<mxfile host="app.diagrams.net" modified="2022-05-13T19:47:51.340Z" agent="5.0 (Windows NT 10.0; Win64; x64) AppleWebKit/537.36 (KHTML, like Gecko) Chrome/101.0.4951.54 Safari/537.36" etag="7FlAoEbbgTeRXQ44fVq6" version="18.0.3" type="github">
  <diagram id="gpqs6PBIfgkFKMRsTo3T" name="Page-1">
    <mxGraphModel dx="1038" dy="539" grid="1" gridSize="10" guides="1" tooltips="1" connect="1" arrows="1" fold="1" page="1" pageScale="1" pageWidth="850" pageHeight="1100" math="0" shadow="0">
      <root>
        <mxCell id="0" />
        <mxCell id="1" parent="0" />
        <mxCell id="P2YSmxGGQyE3p1kzr35L-29" style="edgeStyle=none;rounded=0;orthogonalLoop=1;jettySize=auto;html=1;entryX=0.5;entryY=0;entryDx=0;entryDy=0;" edge="1" parent="1" source="P2YSmxGGQyE3p1kzr35L-1" target="P2YSmxGGQyE3p1kzr35L-3">
          <mxGeometry relative="1" as="geometry" />
        </mxCell>
        <mxCell id="P2YSmxGGQyE3p1kzr35L-1" value="START" style="ellipse;whiteSpace=wrap;html=1;" vertex="1" parent="1">
          <mxGeometry x="190" y="70" width="130" height="70" as="geometry" />
        </mxCell>
        <mxCell id="P2YSmxGGQyE3p1kzr35L-4" style="edgeStyle=orthogonalEdgeStyle;rounded=0;orthogonalLoop=1;jettySize=auto;html=1;" edge="1" parent="1" source="P2YSmxGGQyE3p1kzr35L-3">
          <mxGeometry relative="1" as="geometry">
            <mxPoint x="255" y="280" as="targetPoint" />
          </mxGeometry>
        </mxCell>
        <mxCell id="P2YSmxGGQyE3p1kzr35L-3" value="Engine start&lt;br&gt;button press" style="shape=parallelogram;perimeter=parallelogramPerimeter;whiteSpace=wrap;html=1;fixedSize=1;" vertex="1" parent="1">
          <mxGeometry x="190" y="180" width="130" height="60" as="geometry" />
        </mxCell>
        <mxCell id="P2YSmxGGQyE3p1kzr35L-8" style="edgeStyle=orthogonalEdgeStyle;rounded=0;orthogonalLoop=1;jettySize=auto;html=1;" edge="1" parent="1" source="P2YSmxGGQyE3p1kzr35L-5">
          <mxGeometry relative="1" as="geometry">
            <mxPoint x="255" y="380" as="targetPoint" />
          </mxGeometry>
        </mxCell>
        <mxCell id="P2YSmxGGQyE3p1kzr35L-5" value="Wiper button&amp;nbsp;&lt;br&gt;pressed" style="shape=parallelogram;perimeter=parallelogramPerimeter;whiteSpace=wrap;html=1;fixedSize=1;" vertex="1" parent="1">
          <mxGeometry x="195" y="280" width="120" height="60" as="geometry" />
        </mxCell>
        <mxCell id="P2YSmxGGQyE3p1kzr35L-12" style="edgeStyle=orthogonalEdgeStyle;rounded=0;orthogonalLoop=1;jettySize=auto;html=1;" edge="1" parent="1" source="P2YSmxGGQyE3p1kzr35L-7" target="P2YSmxGGQyE3p1kzr35L-9">
          <mxGeometry relative="1" as="geometry" />
        </mxCell>
        <mxCell id="P2YSmxGGQyE3p1kzr35L-7" value="Information to the&lt;br&gt;MCU" style="shape=parallelogram;perimeter=parallelogramPerimeter;whiteSpace=wrap;html=1;fixedSize=1;" vertex="1" parent="1">
          <mxGeometry x="180" y="380" width="140" height="70" as="geometry" />
        </mxCell>
        <mxCell id="P2YSmxGGQyE3p1kzr35L-14" style="edgeStyle=orthogonalEdgeStyle;rounded=0;orthogonalLoop=1;jettySize=auto;html=1;" edge="1" parent="1" source="P2YSmxGGQyE3p1kzr35L-9">
          <mxGeometry relative="1" as="geometry">
            <mxPoint x="120" y="630" as="targetPoint" />
            <Array as="points">
              <mxPoint x="120" y="550" />
            </Array>
          </mxGeometry>
        </mxCell>
        <mxCell id="P2YSmxGGQyE3p1kzr35L-9" value="When the button is pressed" style="rhombus;whiteSpace=wrap;html=1;" vertex="1" parent="1">
          <mxGeometry x="185" y="495" width="130" height="110" as="geometry" />
        </mxCell>
        <mxCell id="P2YSmxGGQyE3p1kzr35L-22" value="" style="edgeStyle=segmentEdgeStyle;endArrow=classic;html=1;rounded=0;" edge="1" parent="1">
          <mxGeometry width="50" height="50" relative="1" as="geometry">
            <mxPoint x="315" y="550" as="sourcePoint" />
            <mxPoint x="375" y="630" as="targetPoint" />
            <Array as="points">
              <mxPoint x="375" y="550" />
            </Array>
          </mxGeometry>
        </mxCell>
        <mxCell id="P2YSmxGGQyE3p1kzr35L-27" style="edgeStyle=none;rounded=0;orthogonalLoop=1;jettySize=auto;html=1;entryX=0.083;entryY=0.5;entryDx=0;entryDy=0;entryPerimeter=0;" edge="1" parent="1" source="P2YSmxGGQyE3p1kzr35L-23" target="P2YSmxGGQyE3p1kzr35L-26">
          <mxGeometry relative="1" as="geometry" />
        </mxCell>
        <mxCell id="P2YSmxGGQyE3p1kzr35L-23" value="LED ON" style="shape=parallelogram;perimeter=parallelogramPerimeter;whiteSpace=wrap;html=1;fixedSize=1;" vertex="1" parent="1">
          <mxGeometry x="65" y="630" width="120" height="60" as="geometry" />
        </mxCell>
        <mxCell id="P2YSmxGGQyE3p1kzr35L-26" value="END" style="ellipse;whiteSpace=wrap;html=1;" vertex="1" parent="1">
          <mxGeometry x="320" y="610" width="140" height="100" as="geometry" />
        </mxCell>
        <mxCell id="P2YSmxGGQyE3p1kzr35L-28" style="edgeStyle=none;rounded=0;orthogonalLoop=1;jettySize=auto;html=1;entryX=0.5;entryY=0;entryDx=0;entryDy=0;" edge="1" parent="1" source="P2YSmxGGQyE3p1kzr35L-26" target="P2YSmxGGQyE3p1kzr35L-26">
          <mxGeometry relative="1" as="geometry" />
        </mxCell>
      </root>
    </mxGraphModel>
  </diagram>
</mxfile>
